<svg class="svg-standalone-icon" width="100%" viewBox="203.77277644859157 163.77277644859157 142.45471420540605 142.45471420540605"><g data-paper-data="{&quot;isIcon&quot;:&quot;true&quot;,&quot;iconType&quot;:&quot;icon&quot;,&quot;rawIconId&quot;:&quot;274bbdb6-15bb-4a91-81e4-c7cc6a9f56e8&quot;,&quot;selectedEffects&quot;:{&quot;container&quot;:&quot;enclosed_circle_outline3&quot;,&quot;transformation&quot;:&quot;&quot;,&quot;pattern&quot;:&quot;&quot;},&quot;isDetailed&quot;:false,&quot;fillRule&quot;:&quot;nonzero&quot;,&quot;blockLetter&quot;:&quot;O&quot;,&quot;blockLetterId&quot;:0,&quot;relativeBoundsIconToContainer&quot;:{&quot;top&quot;:5.18341872744926e-7,&quot;left&quot;:0.0023102506593814837},&quot;widthRatioIconToContainer&quot;:0.6988634934327206,&quot;heightRatioIconToContainer&quot;:0.8120689339400928,&quot;bounds&quot;:{&quot;x&quot;:203.77277644859157,&quot;y&quot;:163.77277644859157,&quot;width&quot;:142.45471420540605,&quot;height&quot;:142.45471420540605},&quot;iconStyle&quot;:&quot;standalone&quot;,&quot;suitableAsStandaloneIcon&quot;:true}" fill-rule="nonzero"><g data-paper-data="{&quot;isPathIcon&quot;:true}"><path d="M275.00013,163.77278c-9.65988,0 -18.90179,1.8672 -27.72573,5.59921c-2.97465,1.2575 -5.83023,2.69719 -8.56791,4.3167h12.49879c7.59739,-2.95798 15.52941,-4.43697 23.79485,-4.43697c8.35118,0 16.36179,1.50995 24.03301,4.52986l10.38866,0.61446l2.45189,-0.04882h0.13456l0.38821,0.00714c-3.07111,-1.89339 -6.29464,-3.55458 -9.6706,-4.98237c-8.82393,-3.73201 -18.06584,-5.59921 -27.72573,-5.59921z"></path><path d="M259.28496,253.84239c7.73434,-0.98718 14.15164,-1.97437 20.57012,-4.11426l0.16433,-0.16433c7.89867,-2.79722 14.4803,-6.4173 19.41742,-11.02575c5.75878,-5.26578 9.38004,-11.84741 10.53156,-19.08756c0.32866,-1.81004 0.493,-3.62007 0.493,-5.4313c0,-6.25297 -3.45455,-13.16445 -9.54318,-19.25308c-9.87423,-9.87304 -25.17738,-16.45467 -39.98754,-17.60738h-35.37909v115.18983h31.26483c0,-10.36723 -0.16433,-34.3919 -0.16433,-35.54461v-2.63289zM260.27214,234.09511l-1.31585,0.16552l-0.32986,-1.31704c0,-0.493 -0.16433,-11.35441 -0.16433,-13.82297v-23.69601l1.64571,0.16433c8.88586,0.49419 29.62031,3.62127 29.62031,21.22864c0,1.97437 -0.49419,3.94874 -1.31704,5.75878c-2.1387,4.44293 -6.91149,7.73434 -14.15164,9.70871c-2.63289,0.65852 -5.43011,1.15271 -8.39167,1.48137c-1.31704,0.16433 -2.63289,0.16433 -3.7856,0.16433c-0.65852,0 -1.81004,0.16433 -1.81004,0.16433z"></path><path d="M269.158,264.70261l0.32986,-1.15152h1.15152c13.65864,-0.98718 27.64594,-7.24015 39.49335,-17.77171c10.53156,-9.21571 14.48149,-17.60738 14.97449,-31.92454h-0.16433c-0.32866,-3.94874 -2.96155,-16.78453 -9.70871,-24.18901c-6.08863,-6.74715 -11.51875,-10.53156 -17.77171,-12.50712h-12.17727c7.73434,3.29141 14.64463,7.89867 20.07594,13.32997c7.40448,7.40448 11.35441,15.63182 11.35441,23.69601c0,2.1387 -0.16552,4.2786 -0.49419,6.25297c-1.31585,8.55719 -5.59444,16.45586 -12.50593,22.70883c-5.59564,5.10145 -12.83579,9.21452 -21.55731,12.17727c-6.25297,2.1387 -12.3416,3.12589 -19.25308,4.11307c0,6.74715 0.16433,24.35453 0.16433,32.74739h6.08863z"></path><path d="M322.30999,188.84299c-2.1387,-3.94993 -6.08863,-8.72152 -10.36723,-11.02575l-0.16433,0.16433h-8.72152c4.44293,2.30423 8.55719,5.75997 13.00012,10.69708c3.78441,4.2774 6.4173,10.03737 8.063,15.13882v-11.02575c-0.493,-1.31585 -1.15152,-2.63289 -1.81004,-3.94874z"></path><path d="M316.38569,177.98157c3.29141,2.63289 6.08863,6.25297 7.73434,9.21571v-9.21571z"></path><path d="M346.22749,235.00013c0,-9.65869 -1.86601,-18.9006 -5.59802,-27.72573c-3.18662,-7.53388 -7.53269,-14.30565 -13.03822,-20.31529v8.55838c3.2152,4.26788 5.88024,8.89895 7.99155,13.89204c3.44383,8.1416 5.16575,16.67259 5.16575,25.5906c0,8.9192 -1.72192,17.45019 -5.16575,25.59179c-1.92912,4.56082 -4.31908,8.81917 -7.16989,12.77624v2.36019l-0.07859,0.73592l-0.2334,0.70258l-0.10836,1.82909l-0.02382,3.6296c5.32651,-5.90525 9.54676,-12.53808 12.66074,-19.8997c3.73201,-8.82393 5.59802,-18.06584 5.59802,-27.72573z"></path><path d="M203.77278,235.00013c0,9.65988 1.86601,18.90179 5.59802,27.72573c3.12311,7.38384 7.35963,14.03533 12.70956,19.95447v-8.63697c-3.06873,-4.14522 -5.62302,-8.62983 -7.66289,-13.45144c-3.44383,-8.1416 -5.16575,-16.67259 -5.16575,-25.59179c0,-8.91801 1.72192,-17.449 5.16575,-25.5906c2.03986,-4.82161 4.59416,-9.30621 7.66289,-13.45144v-8.63697c-5.35033,5.91954 -9.58605,12.57023 -12.70956,19.95328c-3.73201,8.82473 -5.59802,18.06664 -5.59802,27.72573z"></path><path d="M260.43648,203.48762l0.32986,-0.32866c3.94874,0.32866 20.73327,2.30423 20.73327,13.16445c0,2.13989 -0.82285,3.94993 -2.46737,5.59444c-4.44293,4.2786 -13.65864,5.26697 -18.10157,5.26697v4.60726h0.493c1.15271,0 2.30423,0 3.45574,-0.16433c2.79841,-0.32986 5.59564,-0.82285 8.06419,-1.48137c6.58163,-1.81004 10.86022,-4.60726 12.67026,-8.39286c0.65852,-1.31585 0.98718,-2.96155 0.98718,-4.60726c0,-14.64582 -17.44305,-17.77171 -26.16457,-18.43023z"></path><path d="M277.22219,220.27334c1.15152,-1.15271 1.64451,-2.30423 1.64451,-3.7856h0.49419c0,-8.22733 -14.31597,-10.2017 -18.2659,-10.53156v5.75997c6.4173,0 10.2029,0.65852 11.8486,2.30303c0.493,0.49419 0.82285,1.15271 0.82285,1.97556c0,0.65733 -0.32986,1.31585 -0.82285,1.81004c-1.81004,1.81004 -6.41849,1.97437 -11.19008,1.97437h-0.98718v5.10145c5.10145,0 13.00012,-1.31704 16.45586,-4.60726z"></path><path d="M270.47504,216.3234l0.16433,-0.16433v-0.16433l-0.16433,-0.16433c-0.49419,-0.49419 -2.46856,-1.64571 -10.03856,-1.64571v3.45574c2.63289,0 8.72152,0 10.03856,-1.31704z"></path><path d="M324.61421,229.65219c-2.46856,6.91149 -6.74715,12.67145 -13.49431,18.59575v0.16433c-12.01174,10.53156 -26.16457,16.94886 -39.98635,18.2659v26.16338h5.92311l-0.32866,-21.39179l1.48137,0.16433c0.493,0 1.15152,-0.16433 1.81004,-0.32866c10.86022,-2.79722 23.20182,-6.08863 32.08768,-13.9873c5.10145,-4.44293 8.88705,-10.2029 12.50712,-15.96167z"></path><path d="M324.94288,246.10805c-3.12708,4.77278 -6.4173,9.38004 -10.69589,13.16445l0.16433,-0.493c-9.38004,8.39167 -21.88597,11.68308 -32.91172,14.64463c-0.32866,0.16433 -0.82285,0.32986 -1.31585,0.32986l0.32866,18.7589h6.58282l0.65852,-13.32878h1.15152c1.48137,0 2.96155,-0.65852 4.44293,-1.31704l1.48137,-0.493c1.31585,-0.49419 2.79722,-0.82285 4.11307,-1.15271l1.48137,-0.493c9.54438,-2.79722 18.10157,-8.39286 24.51886,-15.96167z"></path><path d="M301.08254,277.70273l-1.48137,0.49419h-0.16433c-1.31704,0.32866 -2.63289,0.65852 -3.94993,1.15152l-1.48018,0.49419c-1.31704,0.493 -2.63289,1.15152 -4.11426,1.48018l-0.49419,11.02575h6.91149v-5.75997l8.72152,-1.15152c1.64571,-0.16433 3.29141,-0.32866 4.93712,-0.65852c5.10145,-1.31585 10.03737,-4.2786 14.97449,-9.05019v-12.50593c-6.58163,6.74596 -14.81016,11.84741 -23.86034,14.4803z"></path><path d="M309.96839,287.57577c-1.64571,0.49419 -3.45574,0.65852 -5.10145,0.82285l-6.58163,0.82285v3.62007h26.16338v-13.32878c-4.77159,4.2786 -9.54318,6.91149 -14.4803,8.063z"></path><path d="M302.72586,300.62947c-8.82393,3.73201 -18.06584,5.59802 -27.72573,5.59802c-9.65988,0 -18.90179,-1.86601 -27.72573,-5.59802c-3.27355,-1.38492 -6.40301,-2.98775 -9.38957,-4.81089h10.80307h1.28489c7.9725,3.28665 16.31415,4.92997 25.02734,4.92997c8.26544,0 16.19626,-1.47899 23.79485,-4.43578h12.49879c-2.73768,1.61951 -5.59325,3.05801 -8.56791,4.3167z"></path></g></g></svg>